C:\Users\israe\Dropbox\PhDWork\ExperimentalData\subject2\145\P2S145W04_filtered35.mot
nRows=18
nColumns=28

name C:\Users\israe\Dropbox\PhDWork\ExperimentalData\subject2\145\P2S145W04_filtered35.mot
datacolumns 28
datarows 18
range 1.1350000000 1.1520000000
endheader
time	ground_force_1_vx	ground_force_1_vy	ground_force_1_vz	ground_force_1_px	ground_force_1_py	ground_force_1_pz	ground_moment_1_mx	ground_moment_1_my	ground_moment_1_mz	ground_force_2_vx	ground_force_2_vy	ground_force_2_vz	ground_force_2_px	ground_force_2_py	ground_force_2_pz	ground_moment_2_mx	ground_moment_2_my	ground_moment_2_mz	ground_force_3_vx	ground_force_3_vy	ground_force_3_vz	ground_force_3_px	ground_force_3_py	ground_force_3_pz	ground_moment_3_mx	ground_moment_3_my	ground_moment_3_mz
        1.1350000000	        2.7560775745	      226.5959610968	      -64.7251458335	        0.1988394961	        0.0000558755	       -0.3004071324	      -31.4129293537	        3.7276403451	       12.2445755538	       10.6775637727	      627.1009495543	     -187.1465761059	        0.2029003516	       -0.0000795827	        0.4543649445	      -16.4670101424	       -7.0865024558	      -31.3936071212	        0.0000000000	        0.0000000000	       -0.0000000000	        0.2076431971	        0.0000770316	        1.3583900146	       -0.0000000000	       -0.0000000000	       -0.0000000000	
        1.1360000000	        5.1514705646	      250.7893120786	      -64.6412765501	        0.1988394961	        0.0000558755	       -0.3004071324	      -34.5498985931	        3.9446692056	       13.2227825802	       10.4669792651	      615.3654619939	     -186.5289603899	        0.2029003516	       -0.0000795827	        0.4543649445	      -15.9812054047	       -7.0003162982	      -30.8539655549	        0.0000000000	        0.0000000000	       -0.0000000000	        0.2076431971	        0.0000770316	        1.3583900146	       -0.0000000000	       -0.0000000000	       -0.0000000000	
        1.1370000000	        7.8308309744	      274.7790150409	      -62.7999035179	        0.1988394961	        0.0000558755	       -0.3004071324	      -37.5974709595	        4.0867295669	       14.1423586650	       10.1962014376	      603.3843165103	     -185.6748185233	        0.2029003516	       -0.0000795827	        0.4543649445	      -15.4821068166	       -6.9107840782	      -30.2984487913	        0.0000000000	        0.0000000000	       -0.0000000000	        0.2076431971	        0.0000770316	        1.3583900146	       -0.0000000000	       -0.0000000000	       -0.0000000000	
        1.1380000000	       10.7314692244	      298.2394005433	      -59.2285766531	        0.1988394961	        0.0000558755	       -0.3004071324	      -40.5120903441	        4.1505236750	       14.9934002594	        9.8657230244	      591.1575824696	     -184.5797173542	        0.2029003516	       -0.0000795827	        0.4543649445	      -14.9700332989	       -6.8179577376	      -29.7275877085	        0.0000000000	        0.0000000000	       -0.0000000000	        0.2076431971	        0.0000770316	        1.3583900146	       -0.0000000000	       -0.0000000000	       -0.0000000000	
        1.1390000000	       13.7764558467	      320.8719062881	      -54.0000224196	        0.1988394961	        0.0000558755	       -0.3004071324	      -43.2561341523	        4.1337210661	       15.7688104894	        9.4762545585	      578.6868061106	     -183.2410167649	        0.2029003516	       -0.0000795827	        0.4543649445	      -14.4452221653	       -6.7219953933	      -29.1419040385	        0.0000000000	        0.0000000000	       -0.0000000000	        0.2076431971	        0.0000770316	        1.3583900146	       -0.0000000000	        0.0000000000	       -0.0000000000	
        1.1400000000	       16.8798147704	      342.4231043801	      -47.2151314363	        0.1988394961	        0.0000558755	       -0.3004071324	      -45.7988078563	        4.0348343668	       16.4641275975	        9.0293327236	      565.9750625939	     -181.6574599527	        0.2029003516	       -0.0000795827	        0.4543649445	      -13.9079535966	       -6.6230598192	      -28.5419329205	        0.0000000000	        0.0000000000	       -0.0000000000	        0.2076431971	        0.0000770316	        1.3583900146	       -0.0000000000	        0.0000000000	       -0.0000000000	
        1.1410000000	       19.9574074800	      362.6958846450	      -39.0006893376	        0.1988394961	        0.0000558755	       -0.3004071324	      -48.1171494787	        3.8539630401	       17.0774999547	        8.5284332239	      553.0273919374	     -179.8294346844	        0.2029003516	       -0.0000795827	        0.4543649445	      -13.3586358670	       -6.5212145946	      -27.9280891425	       -0.0000000000	        0.0000000000	       -0.0000000000	        0.2076431971	        0.0000770316	        1.3583900146	        0.0000000000	        0.0000000000	        0.0000000000	
        1.1420000000	       22.9405327941	      381.5545880234	      -29.5165358317	        0.1988394961	        0.0000558755	       -0.3004071324	      -50.1974157842	        3.5943105796	       17.6096439149	        7.9796504747	      539.8512143883	     -177.7593316401	        0.2029003516	       -0.0000795827	        0.4543649445	      -12.7977714674	       -6.4163240584	      -27.3007195797	       -0.0000000000	        0.0000000000	       -0.0000000000	        0.2076431971	        0.0000770316	        1.3583900146	        0.0000000000	        0.0000000000	        0.0000000000	
        1.1430000000	       25.7853647078	      398.9278990065	      -18.9608933629	        0.1988394961	        0.0000558755	       -0.3004071324	      -52.0361992716	        3.2635832149	       18.0636899967	        7.3917641836	      526.4572073076	     -175.4513885559	        0.2029003516	       -0.0000795827	        0.4543649445	      -12.2259775033	       -6.3079909216	      -26.6603894485	       -0.0000000000	        0.0000000000	       -0.0000000000	        0.2076431971	        0.0000770316	        1.3583900146	        0.0000000000	        0.0000000000	        0.0000000000	
        1.1440000000	       28.4748101983	      414.8105284748	       -7.5675434273	        0.1988394961	        0.0000558755	       -0.3004071324	      -53.6399192324	        2.8738298882	       18.4448810573	        6.7755942034	      512.8600855519	     -172.9109742333	        0.2029003516	       -0.0000795827	        0.4543649445	      -11.6442944542	       -6.1955864834	      -26.0079896234	       -0.0000000000	        0.0000000000	       -0.0000000000	        0.2076431971	        0.0000770316	        1.3583900146	        0.0000000000	        0.0000000000	        0.0000000000	
        1.1450000000	       31.0142715933	      429.2602592889	        4.4050309250	        0.1988394961	        0.0000558755	       -0.3004071324	      -55.0228671770	        2.4401700584	       18.7601693260	        6.1426240727	      499.0787086289	     -170.1439612510	        0.2029003516	       -0.0000795827	        0.4543649445	      -11.0544753818	       -6.0783146054	      -25.3445608507	       -0.0000000000	        0.0000000000	       -0.0000000000	        0.2076431971	        0.0000770316	        1.3583900146	        0.0000000000	        0.0000000000	        0.0000000000	
        1.1460000000	       33.4242892841	      442.3887319850	       16.6880325732	        0.1988394961	        0.0000558755	       -0.3004071324	      -56.2052869251	        1.9794516409	       19.0178303372	        5.5035041585	      485.1368392120	     -167.1563860317	        0.2029003516	       -0.0000795827	        0.4543649445	      -10.4587084897	       -5.9551911520	      -24.6711906262	       -0.0000000000	        0.0000000000	       -0.0000000000	        0.2076431971	        0.0000770316	        1.3583900146	        0.0000000000	        0.0000000000	        0.0000000000	
        1.1470000000	       35.7330374630	      454.3491155760	       29.0148033514	        0.1988394961	        0.0000558755	       -0.3004071324	      -57.2119844787	        1.5087282099	       19.2271717951	        4.8668880263	      471.0641864387	     -163.9538222516	        0.2029003516	       -0.0000795827	        0.4543649445	       -9.8590993573	       -5.8250047001	      -23.9891412824	       -0.0000000000	        0.0000000000	       -0.0000000000	        0.2076431971	        0.0000770316	        1.3583900146	        0.0000000000	        0.0000000000	        0.0000000000	
        1.1480000000	       37.9702771793	      465.3237616720	       41.1302841924	        0.1988394961	        0.0000558755	       -0.3004071324	      -58.0711482118	        1.0438793123	       19.3982384112	        4.2387073950	      456.8951596422	     -160.5404660655	        0.2029003516	       -0.0000795827	        0.4543649445	       -9.2575539700	       -5.6864199314	      -23.2999310131	       -0.0000000000	        0.0000000000	       -0.0000000000	        0.2076431971	        0.0000770316	        1.3583900146	        0.0000000000	        0.0000000000	        0.0000000000	
        1.1490000000	       40.1627489805	      475.5126535567	       52.7993184136	        0.1988394961	        0.0000558755	       -0.3004071324	      -58.8133351608	        0.5989850452	       19.5414600330	        3.6220908053	      442.6655486093	     -156.9184165668	        0.2029003516	       -0.0000795827	        0.4543649445	       -8.6559066820	       -5.5382032417	      -22.6052588769	       -0.0000000000	        0.0000000000	       -0.0000000000	        0.2076431971	        0.0000770316	        1.3583900146	        0.0000000000	        0.0000000000	        0.0000000000	
        1.1500000000	       42.3310629901	      485.1232904119	       63.8143499761	        0.1988394961	        0.0000558755	       -0.3004071324	      -59.4703188055	        0.1858539670	       19.6673374309	        3.0176608191	      428.4106554088	     -153.0873857216	        0.2029003516	       -0.0000795827	        0.4543649445	       -8.0560120659	       -5.3794158692	      -21.9070093248	       -0.0000000000	        0.0000000000	        0.0000000000	        0.2076431971	        0.0000770316	        1.3583900146	        0.0000000000	        0.0000000000	        0.0000000000	
        1.1510000000	       44.4881249309	      494.3625406034	       74.0028268578	        0.1988394961	        0.0000558755	       -0.3004071324	      -60.0734492554	       -0.1867050971	       19.7861561363	        2.4240242551	      414.1668533247	     -149.0454341483	        0.2029003516	       -0.0000795827	        0.4543649445	       -7.4598377525	       -5.2095273670	      -21.2073389575	       -0.0000000000	        0.0000000000	        0.0000000000	        0.2076431971	        0.0000770316	        1.3583900146	        0.0000000000	        0.0000000000	        0.0000000000	
        1.1520000000	       46.6383059713	      503.4306923007	       83.2338875612	        0.1988394961	        0.0000558755	       -0.3004071324	      -60.6522381525	       -0.5132820276	       19.9076983173	        1.8387721190	      399.9748271871	     -144.7909249870	        0.2029003516	       -0.0000795827	        0.4543649445	       -6.8695937278	       -5.0285015697	      -20.5085786673	       -0.0000000000	        0.0000000000	        0.0000000000	        0.2076431971	        0.0000770316	        1.3583900146	        0.0000000000	        0.0000000000	        0.0000000000	
